HIERARCHY
ROOT root
{
	OFFSET 0.000000 0.000000 0.000000
	CHANNELS 6 Xposition Yposition Zposition Zrotation Yrotation Xrotation
	JOINT lhip
	{
		OFFSET 0.058581 -0.082280 -0.017664
		CHANNELS 3 Zrotation Yrotation Xrotation
		JOINT lknee
		{
			OFFSET 0.043451 -0.386469 0.008037
			CHANNELS 3 Zrotation Yrotation Xrotation
			JOINT lankle
			{
				OFFSET -0.014790 -0.426874 -0.037428
				CHANNELS 3 Zrotation Yrotation Xrotation
				JOINT ltoe
				{
					OFFSET 0.041054 -0.060286 0.122042
					CHANNELS 3 Zrotation Yrotation Xrotation
					End Site
					{
						OFFSET 0.000000 0.000000 0.000000
					}
				}
			}
		}
	}
	JOINT rhip
	{
		OFFSET -0.060310 -0.090513 -0.013543
		CHANNELS 3 Zrotation Yrotation Xrotation
		JOINT rknee
		{
			OFFSET -0.043257 -0.383688 -0.004843
			CHANNELS 3 Zrotation Yrotation Xrotation
			JOINT rankle
			{
				OFFSET 0.019056 -0.420046 -0.034562
				CHANNELS 3 Zrotation Yrotation Xrotation
				JOINT rtoe
				{
					OFFSET -0.034840 -0.062106 0.130323
					CHANNELS 3 Zrotation Yrotation Xrotation
					End Site
					{
						OFFSET 0.000000 0.000000 0.000000
					}
				}
			}
		}
	}
	JOINT lowerback
	{
		OFFSET 0.004439 0.124404 -0.038385
		CHANNELS 3 Zrotation Yrotation Xrotation
		JOINT upperback
		{
			OFFSET 0.004488 0.137956 0.026820
			CHANNELS 3 Zrotation Yrotation Xrotation
			JOINT chest
			{
				OFFSET -0.002265 0.056032 0.002855
				CHANNELS 3 Zrotation Yrotation Xrotation
				JOINT lowerneck
				{
					OFFSET -0.013390 0.211636 -0.033468
					CHANNELS 3 Zrotation Yrotation Xrotation
					JOINT upperneck
					{
						OFFSET 0.010113 0.088937 0.050410
						CHANNELS 3 Zrotation Yrotation Xrotation
						End Site
						{
							OFFSET 0.000000 0.000000 0.000000
						}
					}
				}
				JOINT lclavicle
				{
					OFFSET 0.071702 0.114000 -0.018898
					CHANNELS 3 Zrotation Yrotation Xrotation
					JOINT lshoulder
					{
						OFFSET 0.122921 0.045205 -0.019046
						CHANNELS 3 Zrotation Yrotation Xrotation
						JOINT lelbow
						{
							OFFSET 0.255332 -0.015649 -0.022946
							CHANNELS 3 Zrotation Yrotation Xrotation
							JOINT lwrist
							{
								OFFSET 0.265709 0.012698 -0.007375
								CHANNELS 3 Zrotation Yrotation Xrotation
								End Site
								{
									OFFSET 0.000000 0.000000 0.000000
								}
							}
						}
					}
				}
				JOINT rclavicle
				{
					OFFSET -0.082954 0.112472 -0.023707
					CHANNELS 3 Zrotation Yrotation Xrotation
					JOINT rshoulder
					{
						OFFSET -0.113228 0.046853 -0.008472
						CHANNELS 3 Zrotation Yrotation Xrotation
						JOINT relbow
						{
							OFFSET -0.260127 -0.014369 -0.031269
							CHANNELS 3 Zrotation Yrotation Xrotation
							JOINT rwrist
							{
								OFFSET -0.269108 0.006794 -0.006027
								CHANNELS 3 Zrotation Yrotation Xrotation
								End Site
								{
									OFFSET 0.000000 0.000000 0.000000
								}
							}
						}
					}
				}
			}
		}
	}
}
MOTION
Frames: 10
Frame Time: 0.033333
-0.673874 0.276808 1.011677 93.676318 -0.147030 87.057408 2.081516 1.877781 3.324237 -3.937023 -9.661775 3.434120 1.500921 3.763016 -8.334622 0.000000 -0.000000 0.000000 -1.843049 -2.808746 -2.140557 -0.463027 -2.407601 13.687967 4.254391 -8.231595 -9.370351 0.000000 -0.000000 0.000000 -1.552139 0.275376 11.063527 1.401521 -0.905938 -5.035551 0.496814 -2.571078 0.368795 3.025465 1.008801 -6.291260 -2.682329 -5.487154 11.094599 -27.564731 9.701010 -1.430440 -54.729635 -6.977870 8.466398 8.729451 -26.353126 6.647322 -3.208390 -3.577143 -5.161004 29.767870 -3.976473 -4.718827 52.285899 5.971352 12.240355 -12.866162 18.446502 -11.558800 7.007429 2.315162 -8.308890 
-0.673332 0.277524 1.011626 93.342052 -0.131831 87.284549 2.059957 1.586090 3.263792 -4.065551 -9.208323 3.121468 1.408597 4.169280 -8.177457 0.000000 -0.000000 0.000000 -1.949058 -2.814121 -2.121079 -0.381153 -2.179562 13.280915 4.385920 -8.105551 -9.339480 0.000000 -0.000000 0.000000 -1.417067 0.347215 10.570232 1.308322 -0.935192 -4.916522 0.396534 -2.588874 0.577057 3.157233 1.115607 -6.122005 -2.805152 -5.493854 11.465845 -27.297017 9.772693 -1.048365 -55.226496 -6.917831 8.501533 8.994392 -26.289767 6.692096 -2.977598 -3.733371 -5.428380 29.738811 -3.810896 -4.398485 52.580890 6.431657 12.505308 -13.422527 18.746095 -11.580994 6.480256 2.433035 -8.103430 
-0.673309 0.278494 1.011750 93.300131 -0.088324 87.392310 2.020253 1.557618 2.944925 -4.123777 -8.999863 3.362798 1.275945 4.295356 -8.350976 0.000000 -0.000000 0.000000 -2.056539 -2.818358 -2.103174 -0.308726 -2.323771 13.045573 4.536018 -7.824103 -9.338073 0.000000 -0.000000 0.000000 -1.267544 0.415805 10.544081 1.307677 -1.051566 -4.902405 0.331020 -2.523216 0.471197 3.225135 1.069708 -6.031051 -2.841408 -5.610647 11.721860 -27.251783 9.645913 -0.877390 -55.405361 -6.717399 8.499025 8.849150 -26.249548 6.860459 -3.903556 -3.409195 -5.454056 29.812092 -3.779000 -4.203158 52.585409 6.416903 12.545958 -13.542268 19.540346 -11.508122 6.728988 2.905907 -8.058978 
-0.673772 0.279315 1.012211 93.394730 -0.073805 87.485350 1.789981 1.367737 2.598251 -3.994898 -9.210448 3.556931 1.511175 4.498732 -8.316061 0.000000 -0.000000 0.000000 -2.224338 -2.865325 -2.116676 -0.188480 -2.377482 12.859873 4.796820 -7.522431 -9.406979 0.000000 -0.000000 0.000000 -1.165355 0.465806 10.638138 1.313854 -1.182767 -4.841998 0.331092 -2.569221 0.488999 3.128288 0.912823 -6.258302 -2.763954 -5.851071 11.650810 -27.278295 9.697081 -1.071912 -55.557918 -6.752542 8.521560 8.756685 -25.788039 6.867756 -3.946245 -3.299350 -5.209336 29.820868 -3.983343 -4.526075 52.847060 6.234712 12.592154 -13.430792 20.210329 -11.487164 6.918617 2.734301 -8.380067 
-0.674560 0.279680 1.012632 93.472575 -0.030198 87.569972 1.672451 1.224611 2.211994 -3.890294 -9.515872 3.996819 1.566524 4.571539 -8.331534 0.000000 -0.000000 0.000000 -2.229968 -2.823853 -2.216378 -0.115949 -2.251212 12.883622 4.877782 -7.599256 -9.519055 0.000000 -0.000000 0.000000 -1.197459 0.476144 10.752619 1.384319 -1.220117 -4.896252 0.447369 -2.559414 0.589570 3.093988 0.773555 -6.552365 -2.834914 -6.034454 11.659075 -27.355658 9.718658 -1.267375 -55.603498 -6.658627 8.490861 8.654058 -25.804071 6.933318 -3.843784 -3.291688 -5.221193 29.946254 -4.015621 -4.473790 52.761037 6.229429 12.738268 -13.755416 21.138643 -11.188113 6.422939 3.335255 -7.859045 
-0.676215 0.279768 1.013056 93.284725 -0.047296 87.702620 1.638990 1.046530 2.024947 -3.849520 -9.624007 3.794568 1.476414 4.693484 -8.068027 0.000000 -0.000000 0.000000 -2.281184 -2.829819 -2.617913 -0.127243 -2.172609 13.152509 5.053081 -7.230015 -9.681870 0.000000 -0.000000 0.000000 -1.235269 0.488855 10.971614 1.336006 -1.105160 -4.973016 0.488243 -2.417866 0.722970 3.109900 0.845061 -6.915790 -2.793273 -6.194417 11.376372 -27.278262 9.719332 -1.636671 -55.642678 -6.782148 8.618159 8.543538 -25.483876 6.984717 -3.688288 -3.273522 -5.261490 29.957774 -4.084718 -4.728595 53.168753 6.270828 12.835063 -13.663156 21.238781 -11.247519 6.240722 3.388734 -8.149010 
-0.678036 0.279726 1.013528 93.259943 -0.109991 87.721611 1.599297 0.737946 1.792066 -3.908430 -9.862808 4.051941 1.393838 4.815913 -8.232632 0.000000 -0.000000 0.000000 -2.365245 -2.598280 -2.646734 -0.047773 -1.969997 13.127309 5.286397 -7.300543 -9.896180 0.000000 -0.000000 0.000000 -1.368674 0.558821 11.145243 1.344521 -1.083948 -4.862871 0.529545 -2.416737 0.829206 3.111176 0.756716 -6.993795 -2.699120 -6.432624 11.168010 -27.173282 9.598225 -1.734404 -55.576940 -6.963960 8.727523 8.450986 -25.485000 6.935870 -3.689733 -3.165941 -5.325948 29.964818 -3.851844 -4.811847 53.436178 6.173991 13.177956 -13.362037 21.019529 -10.581993 6.525839 3.064429 -8.084505 
-0.680410 0.279596 1.013789 93.435250 -0.064953 87.848630 1.646993 0.511997 1.332117 -3.881623 -10.379959 4.375824 1.335448 4.679892 -8.154658 0.000000 -0.000000 0.000000 -2.377975 -2.675236 -2.822193 0.042014 -2.056912 12.885458 5.234095 -7.198266 -9.810126 0.000000 -0.000000 0.000000 -1.368805 0.584649 11.150211 1.381792 -1.080167 -4.576363 0.590409 -2.406586 0.820319 3.031035 0.700335 -7.029816 -2.625928 -6.673670 10.871846 -27.165411 9.285247 -1.585662 -55.556399 -7.134928 8.795578 8.670787 -25.809162 6.738981 -3.650399 -3.259636 -5.243541 29.973336 -3.608004 -4.611887 53.626226 6.356466 13.079452 -13.362943 21.106836 -10.605804 6.398676 2.800216 -8.035370 
-0.682696 0.279450 1.014382 93.586390 -0.067742 87.912260 1.657673 0.284851 1.167837 -3.897289 -10.641554 4.272377 1.414527 4.600311 -7.724989 0.000000 -0.000000 0.000000 -2.418178 -2.744132 -2.981868 0.122701 -1.937409 12.799141 4.979856 -6.712181 -10.215117 0.000000 -0.000000 0.000000 -1.310843 0.690159 11.414856 1.375125 -1.129200 -4.604994 0.557918 -2.407590 0.755876 2.997523 0.674358 -7.023099 -2.678709 -6.986331 10.930225 -27.025012 9.144793 -1.458999 -55.549323 -7.122566 8.911276 8.866063 -26.310609 6.699124 -3.576861 -3.431531 -5.465356 30.009510 -3.438303 -4.490028 53.793092 6.309395 13.093547 -13.345930 20.868742 -10.331982 6.547879 3.120359 -7.937509 
-0.685463 0.279621 1.014413 93.736185 -0.102107 88.013312 1.610140 0.107091 1.034718 -3.857689 -10.791967 3.984563 1.378184 4.678090 -7.687568 0.000000 -0.000000 0.000000 -2.473309 -2.515367 -3.215007 0.209025 -2.052637 12.944916 5.465155 -6.846272 -10.822377 0.000000 -0.000000 0.000000 -1.260283 0.640560 11.615545 1.323285 -0.962247 -4.643559 0.487617 -2.287531 0.824997 3.036689 0.626722 -6.684031 -2.717762 -7.292981 10.818956 -26.903146 9.090386 -1.368125 -55.450204 -7.262246 8.989364 8.940689 -26.927339 6.532438 -3.524306 -3.374955 -5.475432 30.062589 -3.332002 -4.397776 53.995169 6.223201 13.084410 -13.375811 20.653140 -10.463083 6.453642 2.992497 -7.834333 
